# xmcd
#
# Track frame offsets:
#	150
#	11540
#	23655
#	34538
#	48011
#	61452
#	75044
#	87206
#	99042
#	109263
#	120609
#	132895
#	146254
#	156080
#	166489
#	178924
#	192337
#	203373
#	215504
#	227569
#	237003
#	246406
#	256151
#	267309
#
# Disc length: 3708 seconds
#
# Revision: 1
# Processed by: cddbd v1.5.1PL2 Copyright (c) Steve Scherf et al.
# Submitted via: audiograbber 1.83.01
#
DISCID=2a0e7a18
DTITLE=Ray Price - The Legend Begins
DYEAR=1900
DGENRE=Country
TTITLE0=If You're Ever Lonely Darling
TTITLE1=You've Got My Troubles Now
TTITLE2=I Saw My Castles Fall Today
TTITLE3=Heartaching Blues
TTITLE4=I Made A Mistake and I'm Sorry 
TTITLE5=Weary Blues (From Waiting)
TTITLE6=Talk to Your Heart
TTITLE7=The Road of No Return
TTITLE8=You're Under Arrest (For Stealing My Heart)
TTITLE9=I Can't Escape From You
TTITLE10=Don't Let the Stars Get In Your Eyes
TTITLE11=The Price for Loving You
TTITLE12=That's What I Get for Loving You
TTITLE13=Cold Shoulder
TTITLE14=The Wrong Side of Town
TTITLE15=Leave Her Alone
TTITLE16=I'll Be There (If You Ever Want Me)
TTITLE17=Release Me
TTITLE18=The Last Letter
TTITLE19=Much Too Young to Die
TTITLE20=I Could Love You More
TTITLE21=If You Don't Somebody Else Will
TTITLE22=Oh Yes, Darling
TTITLE23=One Broken Heart (Don't Mean A Thing)
EXTD=
EXTT0=
EXTT1=
EXTT2=
EXTT3=
EXTT4=
EXTT5=
EXTT6=
EXTT7=
EXTT8=
EXTT9=
EXTT10=
EXTT11=
EXTT12=
EXTT13=
EXTT14=
EXTT15=
EXTT16=
EXTT17=
EXTT18=
EXTT19=
EXTT20=
EXTT21=
EXTT22=
EXTT23=
PLAYORDER=
